<svg xmlns="http://www.w3.org/2000/svg" version="1.1" xmlns:xlink="http://www.w3.org/1999/xlink" xmlns:svgjs="http://svgjs.dev/svgjs" width="1920" height="1200" preserveAspectRatio="none" viewBox="0 0 1920 1200"><g mask="url(&quot;#SvgjsMask1072&quot;)" fill="none"><rect width="1920" height="1200" x="0" y="0" fill="rgba(27, 120, 217, 1)"></rect><path d="M0,638.018C127.181,670.988,285.169,684.107,384.05,597.594C484.048,510.104,447.456,347.851,479.133,218.813C503.975,117.618,563.655,24.221,550.173,-79.103C536.61,-183.049,469.75,-268.48,404.812,-350.771C337.106,-436.569,269.706,-530.894,166.127,-565.776C61.071,-601.156,-55.538,-581.073,-158.721,-540.553C-256.574,-502.126,-330.3,-425.282,-397.503,-344.439C-463.526,-265.016,-505.182,-174.141,-543.155,-78.094C-592.037,45.545,-713.739,180.064,-651.271,297.426C-587.563,417.118,-394.51,364.074,-274.358,426.909C-169.99,481.49,-114.009,608.462,0,638.018" fill="#14589e"></path><path d="M1920 1767.702C2024.172 1744.5819999999999 2053.888 1605.702 2143.298 1547.459 2231.814 1489.797 2369.5299999999997 1518.925 2432.317 1433.967 2495.444 1348.548 2469.945 1228.21 2457.16 1122.768 2444.132 1015.325 2438.9030000000002 892.347 2357.937 820.5260000000001 2277.843 749.479 2155.976 764.784 2048.99 760.701 1964.117 757.462 1885.456 781.788 1802.351 799.323 1711.234 818.548 1615.051 816.9739999999999 1537.556 868.611 1446.099 929.5509999999999 1327.4070000000002 1005.081 1328.634 1114.974 1329.906 1228.897 1489.356 1271.674 1543.1779999999999 1372.089 1591.6480000000001 1462.519 1551.643 1588.771 1622.407 1663.064 1696.429 1740.777 1815.224 1790.9560000000001 1920 1767.702" fill="#4d99e9"></path></g><defs><mask id="SvgjsMask1072"><rect width="1920" height="1200" fill="#ffffff"></rect></mask></defs></svg>